<svg width="874" height="678" viewBox="0 0 874 678" fill="none" xmlns="http://www.w3.org/2000/svg">
<path d="M874 598.431H0V598.868H874V598.431Z" fill="#EBEBEB"/>
<path d="M786.428 626.567H728.53V627.004H786.428V626.567Z" fill="#EBEBEB"/>
<path d="M578.974 631.311H563.778V631.748H578.974V631.311Z" fill="#EBEBEB"/>
<path d="M726.78 610.335H693.232V610.772H726.78V610.335Z" fill="#EBEBEB"/>
<path d="M167.2 613.272H91.6982V613.709H167.2V613.272Z" fill="#EBEBEB"/>
<path d="M193.833 613.272H182.763V613.709H193.833V613.272Z" fill="#EBEBEB"/>
<path d="M393.556 620.654H229.811V621.091H393.556V620.654Z" fill="#EBEBEB"/>
<path d="M414.301 520.474H76.7637C71.2628 520.474 66.7861 515.998 66.7861 510.497V36.0337C66.7861 30.5328 71.2628 26.0562 76.7637 26.0562H414.301C419.8 26.0562 424.277 30.5328 424.277 36.0337V510.497C424.277 515.998 419.8 520.474 414.301 520.474ZM76.7637 26.4949C71.5022 26.4949 67.2231 30.774 67.2231 36.0355V510.499C67.2231 515.76 71.5022 520.039 76.7637 520.039H414.301C419.56 520.039 423.84 515.76 423.84 510.499V36.0337C423.84 30.774 419.56 26.4932 414.301 26.4932L76.7637 26.4949Z" fill="#EBEBEB"/>
<path d="M792.385 520.474H454.85C449.349 520.474 444.874 515.998 444.874 510.497V36.0337C444.874 30.5328 449.351 26.0562 454.85 26.0562H792.385C797.888 26.0562 802.363 30.5328 802.363 36.0337V510.497C802.364 515.998 797.888 520.474 792.385 520.474ZM454.85 26.4949C449.59 26.4949 445.311 30.774 445.311 36.0355V510.499C445.311 515.76 449.59 520.039 454.85 520.039H792.385C797.647 520.039 801.926 515.76 801.926 510.499V36.0337C801.926 30.774 797.647 26.4932 792.385 26.4932L454.85 26.4949Z" fill="#EBEBEB"/>
<path d="M696.24 99.1675H474.139V598.433H696.24V99.1675Z" fill="#F0F0F0"/>
<path d="M696.237 99.1675H478.824V598.433H696.237V99.1675Z" fill="#F5F5F5"/>
<path d="M682.989 587.102L682.989 110.496L492.074 110.496L492.074 587.102H682.989Z" fill="#F0F0F0"/>
<path d="M510.836 199.134C510.836 170.388 534.139 147.085 562.884 147.085H612.18C640.926 147.085 664.228 170.388 664.228 199.134H510.836Z" fill="#FAFAFA"/>
<path d="M664.229 557.476V443.617H510.835V557.476H664.229Z" fill="#F5F5F5"/>
<path d="M510.834 428.928H578.494V231.239H510.834V428.928Z" fill="#F5F5F5"/>
<path d="M596.567 428.928H664.227V231.239H596.567V428.928Z" fill="#F5F5F5"/>
<path d="M639.69 329.193H667.401C669.766 329.193 671.699 327.258 671.699 324.895C671.699 322.532 669.764 320.597 667.401 320.597H639.69C637.325 320.597 635.392 322.532 635.392 324.895C635.392 327.26 637.327 329.193 639.69 329.193Z" fill="#E0E0E0"/>
<path d="M682.99 587.102L682.99 110.496H679.554L679.554 587.102H682.99Z" fill="#F0F0F0"/>
<path d="M123.04 404.466H334.354V105.364C334.354 81.5407 123.038 81.5407 123.04 105.364V404.466Z" fill="#E0E0E0"/>
<path d="M127.896 404.466H339.21V105.364C339.209 81.5407 127.895 81.5407 127.896 105.364V404.466Z" fill="#EBEBEB"/>
<path d="M328.722 389.453V111.265C328.722 109.351 327.528 107.651 325.725 107.002C313.995 102.782 282.057 97.9824 233.552 97.9824C185.05 97.9824 153.11 102.782 141.378 107.002C139.576 107.651 138.382 109.35 138.382 111.265V389.453C138.382 391.952 140.408 393.978 142.907 393.978H324.194C326.694 393.978 328.722 391.952 328.722 389.453Z" fill="#FAFAFA"/>
<path d="M284.047 99.9907L316.997 393.969H268.874L235.697 97.9805C254.401 98.0347 270.587 98.8195 284.047 99.9907Z" fill="white"/>
<path d="M221.818 98.0854L254.995 393.969H228.408L195.336 99.0818C203.394 98.5924 212.239 98.2428 221.818 98.0854Z" fill="white"/>
<path d="M202.084 397.863L202.084 93.4678H192.858L192.858 397.863H202.084Z" fill="#EBEBEB"/>
<path d="M276.408 397.862L276.408 93.4668H267.182L267.182 397.862H276.408Z" fill="#EBEBEB"/>
<path d="M267.183 397.862L267.183 93.4668H265.515L265.515 397.862H267.183Z" fill="#E0E0E0"/>
<path d="M192.861 397.863L192.861 93.4678H191.194L191.194 397.863H192.861Z" fill="#E0E0E0"/>
<path d="M134.998 169.749L334.27 169.749V160.523L134.998 160.523V169.749Z" fill="#EBEBEB"/>
<path d="M133.252 411.846H348.838V401.65H133.252V411.846Z" fill="#F5F5F5"/>
<path d="M133.25 401.649H123.04V411.846H133.25V401.649Z" fill="#E0E0E0"/>
<path d="M728.948 61.5786L781.653 61.5786V46.6822L728.948 46.6822V61.5786Z" fill="#F0F0F0"/>
<path d="M702.596 76.4751H755.302V61.5786L702.596 61.5786V76.4751Z" fill="#E6E6E6"/>
<path d="M358.31 280.713H411.018V265.817H358.31V280.713Z" fill="#F5F5F5"/>
<path d="M280.131 468.188H332.837V453.291H280.131V468.188Z" fill="#F5F5F5"/>
<path d="M781.654 469.948H728.948V484.845H781.654V469.948Z" fill="#E6E6E6"/>
<path d="M331.958 14.9766L384.664 14.9766V0.0801077L331.958 0.0801077V14.9766Z" fill="#F0F0F0"/>
<path d="M138.382 558.627H191.088V543.73H138.382V558.627Z" fill="#F5F5F5"/>
<path d="M96.6869 450.503H149.393V435.607H96.6869V450.503Z" fill="#F5F5F5"/>
<path d="M164.734 573.523H217.439V558.627H164.734V573.523Z" fill="#F0F0F0"/>
<path d="M180.598 48.8369H127.893V63.7334H180.598V48.8369Z" fill="#F0F0F0"/>
<path d="M437 677.377C624.179 677.377 775.918 668.515 775.918 657.584C775.918 646.653 624.179 637.792 437 637.792C249.821 637.792 98.082 646.653 98.082 657.584C98.082 668.515 249.821 677.377 437 677.377Z" fill="#F5F5F5"/>
<path d="M356.722 624.422C356.722 624.422 354.748 635.594 353.781 646.653C353.403 650.975 356.735 654.728 361.07 654.908C375.797 655.522 407.299 656.714 418.603 656.21C420.302 656.134 421.414 654.394 420.785 652.814C420.258 651.489 419.241 650.418 417.946 649.823L365.91 625.907L356.722 624.422Z" fill="url(#paint0_linear_187_2221)"/>
<path d="M355.105 617.858L356.691 631.221C356.691 631.221 365.806 635.464 372.031 630.686L368.256 615.794L355.105 617.858Z" fill="url(#paint1_linear_187_2221)"/>
<path d="M356.298 366.631C355.613 370.121 352.622 540.773 370.863 617.248C371.161 618.496 370.528 619.782 369.341 620.267C366.544 621.41 361.058 623.065 354.485 623.287C352.449 623.355 350.624 622.032 350.05 620.078C344.836 602.334 319.85 513.435 316.59 428.512C312.948 333.619 316.59 425.281 316.59 425.281L318.726 366.623L356.298 366.631Z" fill="url(#paint2_linear_187_2221)"/>
<path d="M296.864 630.251C296.864 630.251 293.723 635.891 290.681 650.878C290.132 653.585 292.023 656.175 294.771 656.445C299.634 656.923 307.12 657.538 313.117 657.497C315.881 657.478 318.039 655.071 317.706 652.327C317.042 646.857 314.972 637.881 308.58 630.887L296.864 630.251Z" fill="url(#paint3_linear_187_2221)"/>
<path d="M294.104 613.063L297.81 633.271C297.81 633.271 301.473 635.996 308.719 634.02L306.951 612.277L294.104 613.063Z" fill="url(#paint4_linear_187_2221)"/>
<path d="M284.097 371.867C269.178 461.905 287.333 594.402 293.456 620.335C293.831 621.923 295.112 623.139 296.722 623.406C299.455 623.859 303.955 624.229 308.391 622.94C309.919 622.496 310.993 621.118 311.056 619.527C311.877 598.561 310.398 469.85 324.299 418.982C325.004 416.404 326.578 414.156 328.756 412.607L355.737 393.426L357.806 362.421L284.097 371.867Z" fill="url(#paint5_linear_187_2221)"/>
<path d="M379.161 201.263C334.451 200.524 285.119 213.002 285.119 213.002C271.792 290.765 282.789 380.459 282.789 380.459C317.402 389.536 356.448 374.909 356.448 374.909C362.201 342.406 389.042 250.932 389.042 250.932C410.887 248.221 428.883 241.918 443.702 233.586C432.398 220.483 427.069 203.81 424.754 193.954C408.947 198.867 392.951 201.491 379.161 201.263Z" fill="url(#paint6_linear_187_2221)"/>
<path d="M511.225 135.408C506.833 130.103 501.274 132.613 501.274 132.613C494.695 160.405 460.196 182.94 424.754 193.955C427.068 203.811 432.397 220.483 443.702 233.587C502.522 200.514 511.225 135.408 511.225 135.408Z" fill="url(#paint7_linear_187_2221)"/>
<path d="M510.16 136.757C510.62 138.218 505.298 140.443 502.164 134.467C502.055 131.603 500.313 119.335 502.024 117.001C511.138 104.576 528.808 89 528.808 89C531.794 91.947 529.334 94.841 529.334 94.841L520.762 103.771C522.555 107.011 524.742 109.746 525.767 113.665C526.544 116.633 526.069 119.804 524.57 122.505C523.065 125.216 521.012 128.74 519.071 131.497C515.398 136.718 510.16 136.757 510.16 136.757Z" fill="url(#paint8_linear_187_2221)"/>
<path d="M517.013 109.566L509.202 116.188L506.75 122.781L513.714 130.508C513.714 130.508 516.056 117.426 517.796 114.595C519.537 111.763 518.634 110.394 517.013 109.566Z" fill="url(#paint9_linear_187_2221)"/>
<path d="M302.269 256.295L285.121 213.003C285.121 213.003 243.359 241.378 236.492 277.355C244.383 277.936 257.612 280.12 271.667 287.217C278.009 272.944 302.269 256.295 302.269 256.295Z" fill="url(#paint10_linear_187_2221)"/>
<path d="M333.875 164.966L319.649 206.106C319.414 206.788 319.693 207.542 320.325 207.891C324.203 210.035 338.174 216.233 355.01 205.558C356.764 204.446 357.958 202.632 358.224 200.573L362.83 164.966H333.875Z" fill="url(#paint11_linear_187_2221)"/>
<path d="M364.828 126.869C364.828 126.869 380.45 156.275 378.447 168.153C376.445 180.031 357.084 179.179 340.178 169.531L328.365 137.779L364.828 126.869Z" fill="url(#paint12_linear_187_2221)"/>
<path d="M340.925 153.938C341.612 153.634 341.866 152.793 341.454 152.164C340.203 150.252 337.857 146.351 337.108 142.936C337.108 142.936 334.299 141.138 344.256 138.755C354.212 136.372 369.059 132.673 372.179 124.199C375.222 115.937 367.227 95.1589 354.473 111.715C353.988 112.345 353.037 112.358 352.552 111.728C350.461 109.007 344.964 103.358 337.333 106.783C330.191 109.987 329.387 115.221 329.485 117.858C329.514 118.634 328.82 119.237 328.057 119.092C324.446 118.403 315.781 117.812 311.737 126.701C308.406 134.023 310.571 138.167 312.543 140.194C313.182 140.851 312.902 141.932 312.026 142.2C309.653 142.927 306.588 144.938 306.895 150.498C307.319 158.184 315.913 157.507 318.359 157.157C318.76 157.1 319.164 157.238 319.435 157.538C321.533 159.86 330.985 169.718 341.215 170.905C342.101 171.008 342.788 170.133 342.497 169.29L338.07 156.421C337.865 155.823 338.15 155.168 338.728 154.912L340.925 153.938Z" fill="url(#paint13_linear_187_2221)"/>
<path d="M342.705 155.765C342.705 155.765 331.582 148.133 330.77 154.56C329.957 160.987 340.786 163.869 346.15 161.473L342.705 155.765Z" fill="url(#paint14_linear_187_2221)"/>
<path d="M236.78 277.701C236.78 277.701 208.237 342.715 278.009 352.23L287.523 344.302C287.523 344.302 252.637 325.273 271.666 287.216C271.666 287.216 251.052 269.773 236.78 277.701Z" fill="url(#paint15_linear_187_2221)"/>
<path d="M355.434 657.584H375.384L375.384 370.192H355.434L355.434 657.584Z" fill="#407BFF"/>
<path opacity="0.2" d="M355.434 370.191H375.384V418.527L355.434 413.384V370.191Z" fill="black"/>
<path d="M294.14 405.98H472.054V372.66C472.054 347.441 451.611 326.999 426.392 326.999H339.8C314.582 326.999 294.139 347.441 294.139 372.66L294.14 405.98Z" fill="#407BFF"/>
<path d="M307.258 351.38L304.304 347.162C303.192 345.576 301.383 344.623 299.446 344.608L290.397 344.533C286.778 344.503 283.37 346.226 281.251 349.16L279.938 350.976C284.361 358.307 294.541 362.969 294.541 362.969L297.296 364.621C299.75 366.089 302.76 365.411 304.213 363.058L307.555 357.643C308.707 355.772 308.592 353.28 307.258 351.38Z" fill="#FFA29F"/>
<path opacity="0.1" d="M294.143 396.107H380.733V374.1H294.143V396.107Z" fill="white"/>
<path opacity="0.2" d="M380.733 405.98V372.66C380.733 347.441 401.176 326.999 426.395 326.999C451.613 326.999 472.056 347.441 472.056 372.66V405.98" fill="black"/>
<path d="M381 406H506V400H381V406Z" fill="#407BFF"/>
<path opacity="0.2" d="M415 406H506V400H415V406Z" fill="black"/>
<path d="M365.41 382.069H368.649V304.938H365.41V382.069Z" fill="#E0E0E0"/>
<path d="M347.003 319.903H369.627V308.834C369.627 308.018 368.965 307.355 368.148 307.355H347.001L350.703 313.629L347.003 319.903Z" fill="#407BFF"/>
<path d="M720.564 34.5405L597.548 62.5802L581.792 72.3166L720.564 34.5405Z" fill="#407BFF"/>
<path opacity="0.2" d="M597.548 62.5802L581.792 72.3166L720.564 34.5405" fill="black"/>
<path d="M720.563 34.54L597.548 62.5797L609.128 71.1012L720.563 34.54Z" fill="#407BFF"/>
<path d="M657.096 58.7798L595.384 56.2452C592.289 56.1176 589.861 53.4816 589.988 50.3859L591.137 22.4424C591.264 19.3467 593.9 16.9187 596.996 17.0463L658.706 19.5809C661.801 19.7085 664.229 22.3445 664.102 25.4402L662.953 53.3837C662.827 56.4777 660.191 58.9057 657.096 58.7798Z" fill="#407BFF"/>
<path opacity="0.8" d="M657.096 58.7798L595.384 56.2452C592.289 56.1176 589.861 53.4816 589.988 50.3859L591.137 22.4424C591.264 19.3467 593.9 16.9187 596.996 17.0463L658.706 19.5809C661.801 19.7085 664.229 22.3445 664.102 25.4402L662.953 53.3837C662.827 56.4777 660.191 58.9057 657.096 58.7798Z" fill="white"/>
<path opacity="0.4" d="M626.774 45.3827C626.6 45.3827 626.427 45.3303 626.278 45.2289L594.382 23.2163C593.986 22.9419 593.886 22.3983 594.159 22.0015C594.433 21.6047 594.977 21.505 595.375 21.7777L626.818 43.4774L659.934 24.4312C660.354 24.19 660.887 24.335 661.128 24.7528C661.369 25.1706 661.224 25.7055 660.806 25.9467L627.213 45.2691C627.075 45.3443 626.925 45.3827 626.774 45.3827Z" fill="#407BFF"/>
<path opacity="0.4" d="M659.225 53.9087C659.054 53.9087 658.879 53.858 658.727 53.7531L640.445 41.0469C640.048 40.7707 639.95 40.2271 640.226 39.8303C640.502 39.4352 641.046 39.3373 641.443 39.6118L659.725 52.318C660.122 52.5941 660.22 53.1378 659.944 53.5346C659.774 53.7793 659.502 53.9087 659.225 53.9087Z" fill="#407BFF"/>
<path opacity="0.4" d="M593.737 51.2176C593.434 51.2176 593.142 51.0621 592.98 50.7824C592.739 50.3646 592.88 49.8297 593.298 49.5885L612.561 38.424C612.979 38.181 613.514 38.3244 613.755 38.7422C613.996 39.1599 613.855 39.6948 613.437 39.936L594.172 51.0988C594.036 51.1809 593.885 51.2176 593.737 51.2176Z" fill="#407BFF"/>
<path d="M720.564 34.54L615.102 56.0981L609.129 71.1012L720.564 34.54Z" fill="#407BFF"/>
<path opacity="0.2" d="M720.564 34.54L615.102 56.0981L609.129 71.1012L720.564 34.54Z" fill="black"/>
<path d="M720.564 34.54L615.102 56.0981L648.314 68.1401L720.564 34.54Z" fill="#407BFF"/>
<path d="M574.362 84.3928C573.965 84.3928 573.607 84.1219 573.512 83.7198C573.402 83.2496 573.694 82.7794 574.163 82.6693C576.126 82.2078 578.043 81.6013 579.858 80.8671C580.307 80.6871 580.814 80.9038 580.996 81.3495C581.177 81.797 580.961 82.3057 580.513 82.4875C578.615 83.2549 576.613 83.8877 574.563 84.3701C574.497 84.3858 574.428 84.3928 574.362 84.3928Z" fill="#407BFF"/>
<path d="M508.672 386.358C508.209 386.358 507.822 385.995 507.8 385.526C507.777 385.044 508.148 384.635 508.63 384.61C512.675 384.415 516.798 384.04 520.882 383.504C521.357 383.439 521.799 383.777 521.862 384.256C521.925 384.734 521.59 385.173 521.111 385.236C516.98 385.78 512.809 386.157 508.717 386.357C508.702 386.358 508.688 386.358 508.672 386.358ZM533.184 383.133C532.782 383.133 532.419 382.854 532.331 382.445C532.23 381.973 532.529 381.508 533.001 381.405C537.115 380.515 541.113 379.459 544.884 378.269C545.343 378.124 545.834 378.379 545.98 378.839C546.125 379.298 545.869 379.789 545.41 379.934C541.589 381.141 537.537 382.21 533.369 383.112C533.306 383.128 533.244 383.133 533.184 383.133ZM556.705 375.58C556.373 375.58 556.057 375.391 555.91 375.07C555.709 374.631 555.903 374.112 556.342 373.911C559.53 372.455 562.404 370.892 564.884 369.265C565.576 368.81 566.269 368.349 566.956 367.879C567.356 367.606 567.898 367.709 568.17 368.108C568.441 368.506 568.34 369.05 567.941 369.322C567.246 369.798 566.545 370.265 565.844 370.726C563.29 372.401 560.338 374.007 557.069 375.5C556.95 375.556 556.828 375.58 556.705 375.58ZM577.272 361.963C577.027 361.963 576.785 361.86 576.611 361.661C576.295 361.296 576.335 360.743 576.701 360.429C579.945 357.618 582.836 354.697 585.29 351.744C585.6 351.374 586.15 351.323 586.521 351.631C586.891 351.94 586.942 352.491 586.635 352.861C584.119 355.887 581.161 358.876 577.846 361.75C577.678 361.893 577.475 361.963 577.272 361.963ZM592.812 342.908C592.677 342.908 592.541 342.877 592.413 342.812C591.983 342.592 591.814 342.066 592.034 341.636C592.599 340.535 593.123 339.407 593.593 338.283C594.654 335.75 595.539 333.044 596.221 330.242C596.334 329.774 596.81 329.485 597.276 329.601C597.745 329.714 598.033 330.188 597.918 330.657C597.213 333.548 596.301 336.341 595.205 338.96C594.717 340.124 594.174 341.293 593.59 342.433C593.436 342.735 593.13 342.908 592.812 342.908ZM598.879 319.101C598.86 319.101 598.839 319.101 598.82 319.099C598.339 319.066 597.974 318.65 598.007 318.169C598.168 315.785 598.246 313.271 598.246 310.483C598.246 308.953 598.222 307.42 598.184 305.884C598.171 305.402 598.552 304.999 599.035 304.987C599.521 304.94 599.919 305.354 599.932 305.839C599.972 307.389 599.996 308.938 599.996 310.481C599.996 313.308 599.918 315.862 599.753 318.284C599.72 318.747 599.335 319.101 598.879 319.101ZM598.544 294.375C598.079 294.375 597.692 294.01 597.671 293.54C597.512 289.984 597.364 286.17 597.364 282.354L597.369 281.127C597.372 280.645 597.706 280.225 598.25 280.26C598.732 280.264 599.12 280.659 599.117 281.141L599.112 282.356C599.112 286.135 599.259 289.928 599.418 293.463C599.439 293.945 599.066 294.352 598.584 294.375C598.572 294.373 598.558 294.375 598.544 294.375ZM673.281 283.607C671.692 283.607 670.136 283.567 668.642 283.501C668.16 283.48 667.785 283.073 667.806 282.59C667.827 282.108 668.236 281.734 668.717 281.755C670.187 281.819 671.717 281.859 673.281 281.859C676.024 281.859 678.602 281.73 680.946 281.478C681.423 281.424 681.857 281.774 681.909 282.253C681.962 282.733 681.614 283.163 681.135 283.216C678.73 283.475 676.087 283.607 673.281 283.607ZM656.334 282.718C656.312 282.718 656.289 282.718 656.266 282.716C652.169 282.401 648.017 282.027 643.922 281.606C643.441 281.557 643.093 281.127 643.142 280.646C643.191 280.166 643.618 279.809 644.102 279.867C648.182 280.286 652.319 280.659 656.401 280.973C656.881 281.01 657.242 281.429 657.205 281.912C657.17 282.37 656.787 282.718 656.334 282.718ZM692.993 280.215C692.661 280.215 692.343 280.024 692.196 279.701C691.997 279.262 692.193 278.743 692.632 278.543C696.556 276.766 699.547 274.228 701.52 270.997C701.772 270.585 702.308 270.455 702.723 270.707C703.135 270.959 703.265 271.497 703.013 271.91C700.852 275.444 697.603 278.211 693.353 280.136C693.236 280.19 693.114 280.215 692.993 280.215ZM631.726 280.183C631.687 280.183 631.651 280.181 631.612 280.176C627.541 279.65 623.412 279.063 619.341 278.428C618.864 278.355 618.537 277.907 618.612 277.43C618.688 276.953 619.132 276.628 619.611 276.701C623.666 277.332 627.781 277.918 631.836 278.442C632.315 278.503 632.652 278.942 632.591 279.421C632.533 279.861 632.158 280.183 631.726 280.183ZM607.278 276.378C607.226 276.378 607.174 276.372 607.121 276.364C603.08 275.628 598.986 274.827 594.957 273.985C594.485 273.885 594.181 273.422 594.28 272.95C594.38 272.478 594.843 272.177 595.315 272.273C599.33 273.112 603.407 273.91 607.434 274.644C607.909 274.731 608.224 275.186 608.137 275.659C608.061 276.082 607.693 276.378 607.278 276.378ZM583.062 271.317C582.995 271.317 582.927 271.31 582.859 271.293C578.858 270.349 574.813 269.339 570.834 268.29C570.368 268.167 570.088 267.688 570.212 267.222C570.334 266.755 570.81 266.475 571.28 266.599C575.243 267.645 579.274 268.65 583.261 269.592C583.731 269.702 584.021 270.174 583.911 270.644C583.817 271.045 583.457 271.317 583.062 271.317ZM599.107 269.676C599.065 269.676 599.021 269.672 598.977 269.667C598.5 269.595 598.171 269.151 598.241 268.674C598.886 264.355 599.914 260.265 601.295 256.52C601.461 256.068 601.964 255.839 602.417 256.003C602.87 256.171 603.102 256.673 602.935 257.125C601.594 260.759 600.598 264.731 599.97 268.933C599.905 269.365 599.533 269.676 599.107 269.676ZM559.138 265.01C559.058 265.01 558.974 264.998 558.894 264.976C554.947 263.825 550.958 262.607 547.041 261.352C546.581 261.205 546.327 260.712 546.474 260.252C546.621 259.793 547.116 259.541 547.574 259.686C551.477 260.936 555.45 262.149 559.383 263.296C559.846 263.43 560.112 263.916 559.978 264.379C559.866 264.762 559.516 265.01 559.138 265.01ZM704.761 260.502C704.35 260.502 703.985 260.212 703.904 259.796C703.244 256.4 701.16 253.103 697.709 249.993C697.351 249.67 697.321 249.118 697.645 248.759C697.968 248.401 698.52 248.373 698.879 248.695C702.616 252.061 704.883 255.685 705.619 259.462C705.712 259.936 705.402 260.394 704.929 260.487C704.873 260.497 704.817 260.502 704.761 260.502ZM535.581 257.449C535.485 257.449 535.385 257.433 535.289 257.398C531.31 255.987 527.402 254.522 523.67 253.042C523.221 252.864 523.002 252.355 523.179 251.907C523.357 251.458 523.864 251.238 524.313 251.416C528.024 252.888 531.913 254.346 535.871 255.75C536.325 255.91 536.565 256.41 536.402 256.865C536.276 257.225 535.941 257.449 535.581 257.449ZM512.586 248.305C512.467 248.305 512.346 248.28 512.229 248.228C508.38 246.508 504.61 244.714 501.019 242.893C500.589 242.675 500.416 242.148 500.635 241.718C500.853 241.288 501.379 241.115 501.809 241.334C505.375 243.141 509.119 244.924 512.942 246.632C513.383 246.83 513.58 247.345 513.385 247.786C513.239 248.111 512.92 248.305 512.586 248.305ZM607.881 246.796C607.701 246.796 607.52 246.74 607.362 246.625C606.974 246.338 606.892 245.791 607.179 245.403C609.561 242.18 612.358 239.477 615.494 237.373C615.793 237.172 616.095 236.976 616.399 236.787C616.808 236.532 617.349 236.656 617.604 237.067C617.859 237.476 617.735 238.016 617.324 238.271C617.036 238.451 616.751 238.635 616.468 238.825C613.499 240.818 610.848 243.382 608.584 246.443C608.415 246.674 608.149 246.796 607.881 246.796ZM688.066 243.299C687.926 243.299 687.783 243.265 687.65 243.194C686.185 242.4 684.743 241.668 683.383 240.995C681.165 239.897 678.868 238.881 676.555 237.976C676.106 237.799 675.884 237.292 676.06 236.843C676.237 236.392 676.742 236.174 677.193 236.349C679.551 237.271 681.894 238.308 684.159 239.428C685.538 240.11 686.999 240.851 688.483 241.657C688.908 241.888 689.066 242.418 688.835 242.842C688.676 243.132 688.375 243.299 688.066 243.299ZM490.54 237.09C490.391 237.09 490.239 237.051 490.101 236.971C486.451 234.852 482.903 232.639 479.559 230.395C479.159 230.126 479.052 229.582 479.32 229.182C479.589 228.781 480.131 228.675 480.533 228.942C483.847 231.166 487.362 233.358 490.979 235.459C491.396 235.702 491.538 236.237 491.295 236.653C491.134 236.934 490.841 237.09 490.54 237.09ZM665.076 234.347C665.01 234.347 664.941 234.34 664.873 234.324C660.904 233.382 656.839 232.716 652.796 232.342C652.316 232.298 651.963 231.872 652.006 231.391C652.05 230.91 652.483 230.559 652.957 230.601C657.082 230.982 661.227 231.662 665.277 232.622C665.745 232.734 666.037 233.204 665.926 233.674C665.831 234.076 665.473 234.347 665.076 234.347ZM628.277 233.777C627.884 233.777 627.525 233.508 627.429 233.109C627.316 232.639 627.604 232.167 628.073 232.054C630.934 231.361 633.988 230.876 637.405 230.57C638.426 230.477 639.449 230.405 640.473 230.351C640.966 230.325 641.366 230.695 641.392 231.178C641.419 231.66 641.048 232.071 640.566 232.097C639.564 232.15 638.562 232.221 637.563 232.311C634.231 232.608 631.261 233.08 628.485 233.753C628.415 233.768 628.345 233.777 628.277 233.777ZM470.032 223.284C469.844 223.284 469.653 223.223 469.494 223.097C466.18 220.498 462.997 217.779 460.032 215.019C459.679 214.691 459.66 214.137 459.988 213.784C460.319 213.43 460.871 213.411 461.224 213.74C464.152 216.467 467.297 219.152 470.573 221.721C470.952 222.018 471.018 222.569 470.721 222.948C470.548 223.169 470.293 223.284 470.032 223.284ZM451.988 206.409C451.745 206.409 451.504 206.309 451.331 206.112C448.563 202.965 445.978 199.661 443.652 196.29C443.377 195.893 443.477 195.347 443.874 195.075C444.27 194.799 444.816 194.9 445.09 195.297C447.38 198.613 449.922 201.862 452.645 204.958C452.963 205.32 452.928 205.872 452.566 206.192C452.399 206.337 452.194 206.409 451.988 206.409ZM437.999 186.073C437.682 186.073 437.376 185.899 437.221 185.599C435.28 181.842 433.618 177.986 432.277 174.135C432.118 173.679 432.359 173.181 432.816 173.022C433.272 172.861 433.77 173.104 433.927 173.56C435.242 177.333 436.871 181.113 438.775 184.796C438.997 185.225 438.829 185.753 438.399 185.975C438.269 186.041 438.133 186.073 437.999 186.073ZM429.954 162.773C429.538 162.773 429.171 162.476 429.094 162.053C428.928 161.122 428.778 160.188 428.645 159.249C428.217 156.208 428 153.079 428 149.947L428.002 149.588C428.003 149.106 428.4 148.7 428.879 148.718C429.362 148.72 429.751 149.113 429.75 149.595L429.748 149.947C429.748 152.997 429.959 156.045 430.376 159.007C430.505 159.922 430.652 160.837 430.814 161.746C430.9 162.221 430.584 162.676 430.108 162.759C430.057 162.768 430.005 162.773 429.954 162.773ZM430.042 138.167C429.989 138.167 429.937 138.162 429.883 138.153C429.409 138.065 429.094 137.609 429.182 137.136C429.935 133.047 431.049 128.988 432.494 125.074C432.662 124.622 433.164 124.389 433.616 124.557C434.069 124.723 434.302 125.226 434.134 125.679C432.723 129.5 431.636 133.459 430.902 137.452C430.823 137.871 430.456 138.167 430.042 138.167ZM438.575 115.071C438.427 115.071 438.275 115.032 438.137 114.952C437.719 114.709 437.577 114.174 437.82 113.756C439.942 110.111 442.381 106.68 445.067 103.555C445.382 103.188 445.934 103.147 446.3 103.462C446.667 103.777 446.707 104.329 446.392 104.694C443.774 107.739 441.398 111.083 439.329 114.635C439.17 114.915 438.876 115.071 438.575 115.071ZM454.662 96.4701C454.402 96.4701 454.145 96.3547 453.972 96.1327C453.676 95.7516 453.745 95.2027 454.126 94.9056C457.337 92.4077 460.896 90.158 464.705 88.2177C465.135 87.9975 465.661 88.1688 465.879 88.6006C466.098 89.0306 465.926 89.5567 465.496 89.7752C461.785 91.6648 458.321 93.855 455.197 96.2848C455.04 96.4089 454.851 96.4701 454.662 96.4701ZM562.08 85.6237C562.077 85.6237 562.073 85.6237 562.068 85.6237C558.361 85.5748 554.41 85.2269 549.638 84.5295C549.161 84.4595 548.83 84.0155 548.9 83.5383C548.97 83.0611 549.414 82.7308 549.892 82.8007C554.585 83.4877 558.462 83.8303 562.091 83.8757C562.573 83.8827 562.96 84.2778 562.953 84.762C562.947 85.2392 562.558 85.6237 562.08 85.6237ZM476.531 85.171C476.163 85.171 475.822 84.9368 475.701 84.5679C475.551 84.1099 475.803 83.6153 476.261 83.4649C479.999 82.2431 484.06 81.1908 488.329 80.3325C488.804 80.2399 489.264 80.544 489.358 81.0177C489.453 81.4914 489.147 81.9512 488.673 82.0473C484.471 82.8916 480.477 83.9264 476.804 85.1273C476.713 85.157 476.621 85.171 476.531 85.171ZM537.575 82.4231C537.523 82.4231 537.469 82.4179 537.414 82.4091C533.663 81.7117 529.412 80.9198 525.255 80.3308C524.778 80.2626 524.444 79.8203 524.512 79.3431C524.58 78.8659 525.019 78.5321 525.5 78.6003C529.693 79.1946 533.966 79.9899 537.734 80.6909C538.21 80.78 538.521 81.2362 538.433 81.7099C538.356 82.1295 537.989 82.4231 537.575 82.4231ZM500.724 80.1717C500.287 80.1717 499.907 79.8431 499.857 79.3973C499.803 78.9184 500.145 78.4849 500.626 78.4289C502.851 78.1737 505.22 77.9448 507.663 77.7507C509.217 77.6284 510.841 77.5654 512.493 77.5654L513.066 77.5689C513.549 77.5724 513.937 77.9675 513.933 78.4517C513.928 78.9341 513.472 79.3117 513.052 79.3169L512.493 79.3134C510.887 79.3134 509.308 79.3746 507.801 79.4935C505.377 79.6858 503.031 79.913 500.825 80.1665C500.79 80.1699 500.757 80.1717 500.724 80.1717Z" fill="#407BFF"/>
<path d="M496.122 386.402C496.108 386.402 496.096 386.402 496.084 386.402C494 386.309 491.933 386.166 489.938 385.973C489.457 385.926 489.106 385.5 489.151 385.019C489.199 384.538 489.622 384.187 490.106 384.232C492.071 384.423 494.107 384.565 496.161 384.654C496.643 384.675 497.017 385.084 496.996 385.566C496.974 386.035 496.587 386.402 496.122 386.402Z" fill="#407BFF"/>
<g opacity="0.6">
<path d="M574.362 84.3928C573.965 84.3928 573.607 84.1219 573.512 83.7198C573.402 83.2496 573.694 82.7794 574.163 82.6693C576.126 82.2078 578.043 81.6013 579.858 80.8671C580.307 80.6871 580.814 80.9038 580.996 81.3495C581.177 81.797 580.961 82.3057 580.513 82.4875C578.615 83.2549 576.613 83.8877 574.563 84.3701C574.497 84.3858 574.428 84.3928 574.362 84.3928Z" fill="white"/>
<path d="M508.672 386.358C508.209 386.358 507.822 385.995 507.8 385.526C507.777 385.044 508.148 384.635 508.63 384.61C512.675 384.415 516.798 384.04 520.882 383.504C521.357 383.439 521.799 383.777 521.862 384.256C521.925 384.734 521.59 385.173 521.111 385.236C516.98 385.78 512.809 386.157 508.717 386.357C508.702 386.358 508.688 386.358 508.672 386.358ZM533.184 383.133C532.782 383.133 532.419 382.854 532.331 382.445C532.23 381.973 532.529 381.508 533.001 381.405C537.115 380.515 541.113 379.459 544.884 378.269C545.343 378.124 545.834 378.379 545.98 378.839C546.125 379.298 545.869 379.789 545.41 379.934C541.589 381.141 537.537 382.21 533.369 383.112C533.306 383.128 533.244 383.133 533.184 383.133ZM556.705 375.58C556.373 375.58 556.057 375.391 555.91 375.07C555.709 374.631 555.903 374.112 556.342 373.911C559.53 372.455 562.404 370.892 564.884 369.265C565.576 368.81 566.269 368.349 566.956 367.879C567.356 367.606 567.898 367.709 568.17 368.108C568.441 368.506 568.34 369.05 567.941 369.322C567.246 369.798 566.545 370.265 565.844 370.726C563.29 372.401 560.338 374.007 557.069 375.5C556.95 375.556 556.828 375.58 556.705 375.58ZM577.272 361.963C577.027 361.963 576.785 361.86 576.611 361.661C576.295 361.296 576.335 360.743 576.701 360.429C579.945 357.618 582.836 354.697 585.29 351.744C585.6 351.374 586.15 351.323 586.521 351.631C586.891 351.94 586.942 352.491 586.635 352.861C584.119 355.887 581.161 358.876 577.846 361.75C577.678 361.893 577.475 361.963 577.272 361.963ZM592.812 342.908C592.677 342.908 592.541 342.877 592.413 342.812C591.983 342.592 591.814 342.066 592.034 341.636C592.599 340.535 593.123 339.407 593.593 338.283C594.654 335.75 595.539 333.044 596.221 330.242C596.334 329.774 596.81 329.485 597.276 329.601C597.745 329.714 598.033 330.188 597.918 330.657C597.213 333.548 596.301 336.341 595.205 338.96C594.717 340.124 594.174 341.293 593.59 342.433C593.436 342.735 593.13 342.908 592.812 342.908ZM598.879 319.101C598.86 319.101 598.839 319.101 598.82 319.099C598.339 319.066 597.974 318.65 598.007 318.169C598.168 315.785 598.246 313.271 598.246 310.483C598.246 308.953 598.222 307.42 598.184 305.884C598.171 305.402 598.552 304.999 599.035 304.987C599.521 304.94 599.919 305.354 599.932 305.839C599.972 307.389 599.996 308.938 599.996 310.481C599.996 313.308 599.918 315.862 599.753 318.284C599.72 318.747 599.335 319.101 598.879 319.101ZM598.544 294.375C598.079 294.375 597.692 294.01 597.671 293.54C597.512 289.984 597.364 286.17 597.364 282.354L597.369 281.127C597.372 280.645 597.706 280.225 598.25 280.26C598.732 280.264 599.12 280.659 599.117 281.141L599.112 282.356C599.112 286.135 599.259 289.928 599.418 293.463C599.439 293.945 599.066 294.352 598.584 294.375C598.572 294.373 598.558 294.375 598.544 294.375ZM673.281 283.607C671.692 283.607 670.136 283.567 668.642 283.501C668.16 283.48 667.785 283.073 667.806 282.59C667.827 282.108 668.236 281.734 668.717 281.755C670.187 281.819 671.717 281.859 673.281 281.859C676.024 281.859 678.602 281.73 680.946 281.478C681.423 281.424 681.857 281.774 681.909 282.253C681.962 282.733 681.614 283.163 681.135 283.216C678.73 283.475 676.087 283.607 673.281 283.607ZM656.334 282.718C656.312 282.718 656.289 282.718 656.266 282.716C652.169 282.401 648.017 282.027 643.922 281.606C643.441 281.557 643.093 281.127 643.142 280.646C643.191 280.166 643.618 279.809 644.102 279.867C648.182 280.286 652.319 280.659 656.401 280.973C656.881 281.01 657.242 281.429 657.205 281.912C657.17 282.37 656.787 282.718 656.334 282.718ZM692.993 280.215C692.661 280.215 692.343 280.024 692.196 279.701C691.997 279.262 692.193 278.743 692.632 278.543C696.556 276.766 699.547 274.228 701.52 270.997C701.772 270.585 702.308 270.455 702.723 270.707C703.135 270.959 703.265 271.497 703.013 271.91C700.852 275.444 697.603 278.211 693.353 280.136C693.236 280.19 693.114 280.215 692.993 280.215ZM631.726 280.183C631.687 280.183 631.651 280.181 631.612 280.176C627.541 279.65 623.412 279.063 619.341 278.428C618.864 278.355 618.537 277.907 618.612 277.43C618.688 276.953 619.132 276.628 619.611 276.701C623.666 277.332 627.781 277.918 631.836 278.442C632.315 278.503 632.652 278.942 632.591 279.421C632.533 279.861 632.158 280.183 631.726 280.183ZM607.278 276.378C607.226 276.378 607.174 276.372 607.121 276.364C603.08 275.628 598.986 274.827 594.957 273.985C594.485 273.885 594.181 273.422 594.28 272.95C594.38 272.478 594.843 272.177 595.315 272.273C599.33 273.112 603.407 273.91 607.434 274.644C607.909 274.731 608.224 275.186 608.137 275.659C608.061 276.082 607.693 276.378 607.278 276.378ZM583.062 271.317C582.995 271.317 582.927 271.31 582.859 271.293C578.858 270.349 574.813 269.339 570.834 268.29C570.368 268.167 570.088 267.688 570.212 267.222C570.334 266.755 570.81 266.475 571.28 266.599C575.243 267.645 579.274 268.65 583.261 269.592C583.731 269.702 584.021 270.174 583.911 270.644C583.817 271.045 583.457 271.317 583.062 271.317ZM599.107 269.676C599.065 269.676 599.021 269.672 598.977 269.667C598.5 269.595 598.171 269.151 598.241 268.674C598.886 264.355 599.914 260.265 601.295 256.52C601.461 256.068 601.964 255.839 602.417 256.003C602.87 256.171 603.102 256.673 602.935 257.125C601.594 260.759 600.598 264.731 599.97 268.933C599.905 269.365 599.533 269.676 599.107 269.676ZM559.138 265.01C559.058 265.01 558.974 264.998 558.894 264.976C554.947 263.825 550.958 262.607 547.041 261.352C546.581 261.205 546.327 260.712 546.474 260.252C546.621 259.793 547.116 259.541 547.574 259.686C551.477 260.936 555.45 262.149 559.383 263.296C559.846 263.43 560.112 263.916 559.978 264.379C559.866 264.762 559.516 265.01 559.138 265.01ZM704.761 260.502C704.35 260.502 703.985 260.212 703.904 259.796C703.244 256.4 701.16 253.103 697.709 249.993C697.351 249.67 697.321 249.118 697.645 248.759C697.968 248.401 698.52 248.373 698.879 248.695C702.616 252.061 704.883 255.685 705.619 259.462C705.712 259.936 705.402 260.394 704.929 260.487C704.873 260.497 704.817 260.502 704.761 260.502ZM535.581 257.449C535.485 257.449 535.385 257.433 535.289 257.398C531.31 255.987 527.402 254.522 523.67 253.042C523.221 252.864 523.002 252.355 523.179 251.907C523.357 251.458 523.864 251.238 524.313 251.416C528.024 252.888 531.913 254.346 535.871 255.75C536.325 255.91 536.565 256.41 536.402 256.865C536.276 257.225 535.941 257.449 535.581 257.449ZM512.586 248.305C512.467 248.305 512.346 248.28 512.229 248.228C508.38 246.508 504.61 244.714 501.019 242.893C500.589 242.675 500.416 242.148 500.635 241.718C500.853 241.288 501.379 241.115 501.809 241.334C505.375 243.141 509.119 244.924 512.942 246.632C513.383 246.83 513.58 247.345 513.385 247.786C513.239 248.111 512.92 248.305 512.586 248.305ZM607.881 246.796C607.701 246.796 607.52 246.74 607.362 246.625C606.974 246.338 606.892 245.791 607.179 245.403C609.561 242.18 612.358 239.477 615.494 237.373C615.793 237.172 616.095 236.976 616.399 236.787C616.808 236.532 617.349 236.656 617.604 237.067C617.859 237.476 617.735 238.016 617.324 238.271C617.036 238.451 616.751 238.635 616.468 238.825C613.499 240.818 610.848 243.382 608.584 246.443C608.415 246.674 608.149 246.796 607.881 246.796ZM688.066 243.299C687.926 243.299 687.783 243.265 687.65 243.194C686.185 242.4 684.743 241.668 683.383 240.995C681.165 239.897 678.868 238.881 676.555 237.976C676.106 237.799 675.884 237.292 676.06 236.843C676.237 236.392 676.742 236.174 677.193 236.349C679.551 237.271 681.894 238.308 684.159 239.428C685.538 240.11 686.999 240.851 688.483 241.657C688.908 241.888 689.066 242.418 688.835 242.842C688.676 243.132 688.375 243.299 688.066 243.299ZM490.54 237.09C490.391 237.09 490.239 237.051 490.101 236.971C486.451 234.852 482.903 232.639 479.559 230.395C479.159 230.126 479.052 229.582 479.32 229.182C479.589 228.781 480.131 228.675 480.533 228.942C483.847 231.166 487.362 233.358 490.979 235.459C491.396 235.702 491.538 236.237 491.295 236.653C491.134 236.934 490.841 237.09 490.54 237.09ZM665.076 234.347C665.01 234.347 664.941 234.34 664.873 234.324C660.904 233.382 656.839 232.716 652.796 232.342C652.316 232.298 651.963 231.872 652.006 231.391C652.05 230.91 652.483 230.559 652.957 230.601C657.082 230.982 661.227 231.662 665.277 232.622C665.745 232.734 666.037 233.204 665.926 233.674C665.831 234.076 665.473 234.347 665.076 234.347ZM628.277 233.777C627.884 233.777 627.525 233.508 627.429 233.109C627.316 232.639 627.604 232.167 628.073 232.054C630.934 231.361 633.988 230.876 637.405 230.57C638.426 230.477 639.449 230.405 640.473 230.351C640.966 230.325 641.366 230.695 641.392 231.178C641.419 231.66 641.048 232.071 640.566 232.097C639.564 232.15 638.562 232.221 637.563 232.311C634.231 232.608 631.261 233.08 628.485 233.753C628.415 233.768 628.345 233.777 628.277 233.777ZM470.032 223.284C469.844 223.284 469.653 223.223 469.494 223.097C466.18 220.498 462.997 217.779 460.032 215.019C459.679 214.691 459.66 214.137 459.988 213.784C460.319 213.43 460.871 213.411 461.224 213.74C464.152 216.467 467.297 219.152 470.573 221.721C470.952 222.018 471.018 222.569 470.721 222.948C470.548 223.169 470.293 223.284 470.032 223.284ZM451.988 206.409C451.745 206.409 451.504 206.309 451.331 206.112C448.563 202.965 445.978 199.661 443.652 196.29C443.377 195.893 443.477 195.347 443.874 195.075C444.27 194.799 444.816 194.9 445.09 195.297C447.38 198.613 449.922 201.862 452.645 204.958C452.963 205.32 452.928 205.872 452.566 206.192C452.399 206.337 452.194 206.409 451.988 206.409ZM437.999 186.073C437.682 186.073 437.376 185.899 437.221 185.599C435.28 181.842 433.618 177.986 432.277 174.135C432.118 173.679 432.359 173.181 432.816 173.022C433.272 172.861 433.77 173.104 433.927 173.56C435.242 177.333 436.871 181.113 438.775 184.796C438.997 185.225 438.829 185.753 438.399 185.975C438.269 186.041 438.133 186.073 437.999 186.073ZM429.954 162.773C429.538 162.773 429.171 162.476 429.094 162.053C428.928 161.122 428.778 160.188 428.645 159.249C428.217 156.208 428 153.079 428 149.947L428.002 149.588C428.003 149.106 428.4 148.7 428.879 148.718C429.362 148.72 429.751 149.113 429.75 149.595L429.748 149.947C429.748 152.997 429.959 156.045 430.376 159.007C430.505 159.922 430.652 160.837 430.814 161.746C430.9 162.221 430.584 162.676 430.108 162.759C430.057 162.768 430.005 162.773 429.954 162.773ZM430.042 138.167C429.989 138.167 429.937 138.162 429.883 138.153C429.409 138.065 429.094 137.609 429.182 137.136C429.935 133.047 431.049 128.988 432.494 125.074C432.662 124.622 433.164 124.389 433.616 124.557C434.069 124.723 434.302 125.226 434.134 125.679C432.723 129.5 431.636 133.459 430.902 137.452C430.823 137.871 430.456 138.167 430.042 138.167ZM438.575 115.071C438.427 115.071 438.275 115.032 438.137 114.952C437.719 114.709 437.577 114.174 437.82 113.756C439.942 110.111 442.381 106.68 445.067 103.555C445.382 103.188 445.934 103.147 446.3 103.462C446.667 103.777 446.707 104.329 446.392 104.694C443.774 107.739 441.398 111.083 439.329 114.635C439.17 114.915 438.876 115.071 438.575 115.071ZM454.662 96.4701C454.402 96.4701 454.145 96.3547 453.972 96.1327C453.676 95.7516 453.745 95.2027 454.126 94.9056C457.337 92.4077 460.896 90.158 464.705 88.2177C465.135 87.9975 465.661 88.1688 465.879 88.6006C466.098 89.0306 465.926 89.5567 465.496 89.7752C461.785 91.6648 458.321 93.855 455.197 96.2848C455.04 96.4089 454.851 96.4701 454.662 96.4701ZM562.08 85.6237C562.077 85.6237 562.073 85.6237 562.068 85.6237C558.361 85.5748 554.41 85.2269 549.638 84.5295C549.161 84.4595 548.83 84.0155 548.9 83.5383C548.97 83.0611 549.414 82.7308 549.892 82.8007C554.585 83.4877 558.462 83.8303 562.091 83.8757C562.573 83.8827 562.96 84.2778 562.953 84.762C562.947 85.2392 562.558 85.6237 562.08 85.6237ZM476.531 85.171C476.163 85.171 475.822 84.9368 475.701 84.5679C475.551 84.1099 475.803 83.6153 476.261 83.4649C479.999 82.2431 484.06 81.1908 488.329 80.3325C488.804 80.2399 489.264 80.544 489.358 81.0177C489.453 81.4914 489.147 81.9512 488.673 82.0473C484.471 82.8916 480.477 83.9264 476.804 85.1273C476.713 85.157 476.621 85.171 476.531 85.171ZM537.575 82.4231C537.523 82.4231 537.469 82.4179 537.414 82.4091C533.663 81.7117 529.412 80.9198 525.255 80.3308C524.778 80.2626 524.444 79.8203 524.512 79.3431C524.58 78.8659 525.019 78.5321 525.5 78.6003C529.693 79.1946 533.966 79.9899 537.734 80.6909C538.21 80.78 538.521 81.2362 538.433 81.7099C538.356 82.1295 537.989 82.4231 537.575 82.4231ZM500.724 80.1717C500.287 80.1717 499.907 79.8431 499.857 79.3973C499.803 78.9184 500.145 78.4849 500.626 78.4289C502.851 78.1737 505.22 77.9448 507.663 77.7507C509.217 77.6284 510.841 77.5654 512.493 77.5654L513.066 77.5689C513.549 77.5724 513.937 77.9675 513.933 78.4517C513.928 78.9341 513.472 79.3117 513.052 79.3169L512.493 79.3134C510.887 79.3134 509.308 79.3746 507.801 79.4935C505.377 79.6858 503.031 79.913 500.825 80.1665C500.79 80.1699 500.757 80.1717 500.724 80.1717Z" fill="white"/>
<path d="M496.122 386.402C496.108 386.402 496.096 386.402 496.084 386.402C494 386.309 491.933 386.166 489.938 385.973C489.457 385.926 489.106 385.5 489.151 385.019C489.199 384.538 489.622 384.187 490.106 384.232C492.071 384.423 494.107 384.565 496.161 384.654C496.643 384.675 497.017 385.084 496.996 385.566C496.974 386.035 496.587 386.402 496.122 386.402Z" fill="white"/>
</g>
<defs>
<linearGradient id="paint0_linear_187_2221" x1="416.956" y1="608.982" x2="226.404" y2="816.25" gradientUnits="userSpaceOnUse">
<stop stop-color="#09005D"/>
<stop offset="1" stop-color="#1A0F91"/>
</linearGradient>
<linearGradient id="paint1_linear_187_2221" x1="355.105" y1="624.376" x2="372.031" y2="624.376" gradientUnits="userSpaceOnUse">
<stop stop-color="#FF928E"/>
<stop offset="1" stop-color="#FEB3B1"/>
</linearGradient>
<linearGradient id="paint2_linear_187_2221" x1="324.443" y1="609.327" x2="361.844" y2="392.049" gradientUnits="userSpaceOnUse">
<stop stop-color="#09005D"/>
<stop offset="1" stop-color="#1A0F91"/>
</linearGradient>
<linearGradient id="paint3_linear_187_2221" x1="374.208" y1="569.683" x2="183.658" y2="776.949" gradientUnits="userSpaceOnUse">
<stop stop-color="#09005D"/>
<stop offset="1" stop-color="#1A0F91"/>
</linearGradient>
<linearGradient id="paint4_linear_187_2221" x1="294.105" y1="623.508" x2="308.719" y2="623.508" gradientUnits="userSpaceOnUse">
<stop stop-color="#FF928E"/>
<stop offset="1" stop-color="#FEB3B1"/>
</linearGradient>
<linearGradient id="paint5_linear_187_2221" x1="282.152" y1="602.047" x2="319.552" y2="384.769" gradientUnits="userSpaceOnUse">
<stop stop-color="#09005D"/>
<stop offset="1" stop-color="#1A0F91"/>
</linearGradient>
<linearGradient id="paint6_linear_187_2221" x1="122.758" y1="669.683" x2="-21.2413" y2="935.682" gradientUnits="userSpaceOnUse">
<stop stop-color="#FE7062"/>
<stop offset="1" stop-color="#FF928E"/>
</linearGradient>
<linearGradient id="paint7_linear_187_2221" x1="424.755" y1="182.803" x2="511.225" y2="182.803" gradientUnits="userSpaceOnUse">
<stop stop-color="#FF928E"/>
<stop offset="1" stop-color="#FEB3B1"/>
</linearGradient>
<linearGradient id="paint8_linear_187_2221" x1="491.964" y1="168.309" x2="433.939" y2="300.327" gradientUnits="userSpaceOnUse">
<stop stop-color="#FF928E"/>
<stop offset="1" stop-color="#FEB3B1"/>
</linearGradient>
<linearGradient id="paint9_linear_187_2221" x1="437.36" y1="208.031" x2="563.359" y2="64.0314" gradientUnits="userSpaceOnUse">
<stop stop-color="#FF928E"/>
<stop offset="1" stop-color="#FEB3B1"/>
</linearGradient>
<linearGradient id="paint10_linear_187_2221" x1="66.1701" y1="639.049" x2="-77.8297" y2="905.049" gradientUnits="userSpaceOnUse">
<stop stop-color="#FE7062"/>
<stop offset="1" stop-color="#FF928E"/>
</linearGradient>
<linearGradient id="paint11_linear_187_2221" x1="341.246" y1="185.774" x2="323.246" y2="321.774" gradientUnits="userSpaceOnUse">
<stop stop-color="#FF928E"/>
<stop offset="1" stop-color="#FEB3B1"/>
</linearGradient>
<linearGradient id="paint12_linear_187_2221" x1="3525.24" y1="1294.33" x2="3406.57" y2="1251.48" gradientUnits="userSpaceOnUse">
<stop stop-color="#FF928E"/>
<stop offset="1" stop-color="#FEB3B1"/>
</linearGradient>
<linearGradient id="paint13_linear_187_2221" x1="298.201" y1="-4304.89" x2="296.308" y2="-4506.65" gradientUnits="userSpaceOnUse">
<stop stop-color="#09005D"/>
<stop offset="1" stop-color="#1A0F91"/>
</linearGradient>
<linearGradient id="paint14_linear_187_2221" x1="3520.75" y1="1306.8" x2="3402.07" y2="1263.95" gradientUnits="userSpaceOnUse">
<stop stop-color="#FF928E"/>
<stop offset="1" stop-color="#FEB3B1"/>
</linearGradient>
<linearGradient id="paint15_linear_187_2221" x1="324.855" y1="366.472" x2="235.778" y2="295.211" gradientUnits="userSpaceOnUse">
<stop stop-color="#FF928E"/>
<stop offset="1" stop-color="#FEB3B1"/>
</linearGradient>
</defs>
</svg>
